HIERARCHY
ROOT Hip
{
	OFFSET 0 1.131 0.0052
	CHANNELS 6 Xposition Yposition Zposition Xrotation Yrotation Zrotation
	JOINT Abdomen
	{
		OFFSET 0 -0.047353 -0.05
		CHANNELS 3 Xrotation Zrotation Yrotation
		JOINT Chest
		{
			OFFSET 0 0.132153 0.007439
			CHANNELS 3 Xrotation Zrotation Yrotation
			JOINT Neck
			{
				OFFSET 0 0.3078 0.006161
				CHANNELS 3 Xrotation Zrotation Yrotation
				JOINT Head_comp
				{
					OFFSET 0 0.0884 0.013
					CHANNELS 3 Xrotation Yrotation Zrotation
					End Site
					{
						OFFSET -0 0.156 0.0624
					}
				}
			}
			JOINT Left_Collar
			{
				OFFSET 0.02282 0.250342 0.017193
				CHANNELS 2 Yrotation Zrotation
				JOINT Left_Shoulder
				{
					OFFSET 0.15421 0 0
					CHANNELS 3 Xrotation Yrotation Zrotation
					JOINT Left_Forearm
					{
						OFFSET 0.265212 0 0
						CHANNELS 2 Yrotation Xrotation
						JOINT Left_Hand
						{
							OFFSET 0.27571 0 0
							CHANNELS 2 Zrotation Yrotation
							JOINT L1ProxPhalanx
							{
								OFFSET 0.014142 0.001733 0.014142
								CHANNELS 3 Yrotation Zrotation Xrotation
								JOINT L1MidPhalanx
								{
									OFFSET 0.04 0 0
									CHANNELS 1 Zrotation
									JOINT L1DistPhalanx
									{
										OFFSET 0.035 0 0
										CHANNELS 1 Zrotation
										End Site
										{
											OFFSET 0.029 -0 -0
										}
									}
								}
							}
							JOINT L2ProxPhalanx
							{
								OFFSET 0.0821037 0.001578 0.0219996
								CHANNELS 2 Yrotation Zrotation
								JOINT L2MidPhalanx
								{
									OFFSET 0.04 0 0
									CHANNELS 1 Zrotation
									JOINT L2DistPhalanx
									{
										OFFSET 0.028 0 0
										CHANNELS 1 Zrotation
										End Site
										{
											OFFSET 0.02 -0 -0
										}
									}
								}
							}
							JOINT L3ProxPhalanx
							{
								OFFSET 0.083 0 0
								CHANNELS 2 Yrotation Zrotation
								JOINT L3MidPhalanx
								{
									OFFSET 0.053 0 0
									CHANNELS 1 Zrotation
									JOINT L3DistPhalanx
									{
										OFFSET 0.03 0 0
										CHANNELS 1 Zrotation
										End Site
										{
											OFFSET 0.023 -0 -0
										}
									}
								}
							}
							JOINT L4ProxPhalanx
							{
								OFFSET 0.077274 -0.000761 -0.0207055
								CHANNELS 2 Yrotation Zrotation
								JOINT L4MidPhalanx
								{
									OFFSET 0.05 0 0
									CHANNELS 1 Zrotation
									JOINT L4DistPhalanx
									{
										OFFSET 0.03 0 0
										CHANNELS 1 Zrotation
										End Site
										{
											OFFSET 0.023 -0 -0
										}
									}
								}
							}
							JOINT L5ProxPhalanx
							{
								OFFSET 0.0675499 -0.001644 -0.039
								CHANNELS 2 Yrotation Zrotation
								JOINT L5MidPhalanx
								{
									OFFSET 0.04 0 0
									CHANNELS 1 Zrotation
									JOINT L5DistPhalanx
									{
										OFFSET 0.021 0 0
										CHANNELS 1 Zrotation
										End Site
										{
											OFFSET 0.022 -0 -0
										}
									}
								}
							}
						}
					}
				}
			}
			JOINT Right_Collar
			{
				OFFSET -0.02282 0.250342 0.017193
				CHANNELS 2 Yrotation Zrotation
				JOINT Right_Shoulder
				{
					OFFSET -0.15421 0 0
					CHANNELS 3 Xrotation Yrotation Zrotation
					JOINT Right_Forearm
					{
						OFFSET -0.265212 0 0
						CHANNELS 2 Yrotation Xrotation
						JOINT Right_Hand
						{
							OFFSET -0.27571 3e-006 0
							CHANNELS 2 Zrotation Yrotation
							JOINT R1ProxPhalanx
							{
								OFFSET -0.014142 0.001733 0.014142
								CHANNELS 3 Yrotation Zrotation Xrotation
								JOINT R1MidPhalanx
								{
									OFFSET -0.04 0 0
									CHANNELS 1 Zrotation
									JOINT R1DistPhalanx
									{
										OFFSET -0.035 0 0
										CHANNELS 1 Zrotation
										End Site
										{
											OFFSET -0.029 -0 -0
										}
									}
								}
							}
							JOINT R2ProxPhalanx
							{
								OFFSET -0.0821037 0.001578 0.0219996
								CHANNELS 2 Yrotation Zrotation
								JOINT R2MidPhalanx
								{
									OFFSET -0.04 0 0
									CHANNELS 1 Zrotation
									JOINT R2DistPhalanx
									{
										OFFSET -0.028 0 0
										CHANNELS 1 Zrotation
										End Site
										{
											OFFSET -0.02 -0 -0
										}
									}
								}
							}
							JOINT R3ProxPhalanx
							{
								OFFSET -0.083 0 0
								CHANNELS 2 Yrotation Zrotation
								JOINT R3MidPhalanx
								{
									OFFSET -0.053 0 0
									CHANNELS 1 Zrotation
									JOINT R3DistPhalanx
									{
										OFFSET -0.03 0 0
										CHANNELS 1 Zrotation
										End Site
										{
											OFFSET -0.023 -0 -0
										}
									}
								}
							}
							JOINT R4ProxPhalanx
							{
								OFFSET -0.077274 -0.000761 -0.0207055
								CHANNELS 2 Yrotation Zrotation
								JOINT R4MidPhalanx
								{
									OFFSET -0.05 0 0
									CHANNELS 1 Zrotation
									JOINT R4DistPhalanx
									{
										OFFSET -0.03 0 0
										CHANNELS 1 Zrotation
										End Site
										{
											OFFSET -0.023 -0 -0
										}
									}
								}
							}
							JOINT R5ProxPhalanx
							{
								OFFSET -0.0675499 -0.001644 -0.039
								CHANNELS 2 Yrotation Zrotation
								JOINT R5MidPhalanx
								{
									OFFSET -0.04 0 0
									CHANNELS 1 Zrotation
									JOINT R5DistPhalanx
									{
										OFFSET -0.021 0 0
										CHANNELS 1 Zrotation
										End Site
										{
											OFFSET -0.022 -0 -0
										}
									}
								}
							}
						}
					}
				}
			}
		}
	}
	JOINT Left_Thigh
	{
		OFFSET 0.1118 -0.1612 -0.0442
		CHANNELS 3 Xrotation Zrotation Yrotation
		JOINT Left_Shin
		{
			OFFSET 0 -0.477856 0
			CHANNELS 1 Xrotation
			JOINT Left_Foot
			{
				OFFSET 0 -0.431952 0
				CHANNELS 2 Xrotation Zrotation
				JOINT Left_Toe
				{
					OFFSET 0 -0.0442 0.119
					CHANNELS 1 Xrotation
					End Site
					{
						OFFSET -0 -0 0.07
					}
				}
			}
		}
	}
	JOINT Right_Thigh
	{
		OFFSET -0.1118 -0.1612 -0.0442
		CHANNELS 3 Xrotation Zrotation Yrotation
		JOINT Right_Shin
		{
			OFFSET 0 -0.477856 0
			CHANNELS 1 Xrotation
			JOINT Right_Foot
			{
				OFFSET 0 -0.431952 0
				CHANNELS 2 Xrotation Zrotation
				JOINT Right_Toe
				{
					OFFSET 0 -0.0442 0.119
					CHANNELS 1 Xrotation
					End Site
					{
						OFFSET -0 -0 0.07
					}
				}
			}
		}
	}
}
MOTION
Frames: 12
Frame Time: 0.009975
-0.10175 -0.0600689 0.0452392 6.62959e-013 3.42692e-008 -5.10952e-006 0 -0 0 0 -0 0 0 -0 0 -0.712423 0.29173 -8.10292e-012 -4.10083 -24.9977 -28.4129 -21.0443 -43.7602 -31.3545 18.8688 50.815 1.6213 -27.9436 -65.2833 108.317 -5.9465 -7.44175 6.29417 -50.3571 -20.0037 -11.5643 6.55825 -38.876 -58.7545 -26.576 8.48127 -17.8832 -91.8158 -1.8259 27.3153 2.32054 -121.523 2.17466 1.07803 9.72385 18.3244 7.25696 57.8965 81.5372 6.10631 -15.2998 -0.156921 35.658 35.6594 81.0804 22.393 24.1862 9.46214 24.9411 28.0654 17.918 -1.23257 26.2253 37.7352 27.3694 -8.58053 29.1206 42.8159 22.3945 -11.5064 21.3153 47.1753 36.9751 0.381538 -0.632931 -0.00421463 0.0240216 -0.405537 0.63295 0 0.392944 -0.63293 -0.00434062 2.41484e-006 -0.392922 0.63295 0 
-0.101805 -0.0600702 0.0455132 -1.6596e-012 3.58235e-008 -5.10951e-006 0 -0 0 0 -0 0 0 -0 0 -0.712447 0.291892 -8.47225e-012 -4.10083 -24.9977 -28.4129 -21.0443 -43.7602 -31.3545 18.8688 50.815 1.6213 -27.9436 -65.2833 108.317 -5.9465 -7.44175 6.29417 -50.3571 -20.0037 -11.5643 6.55825 -38.876 -58.7545 -26.576 8.48127 -17.8832 -91.8158 -1.8259 27.3153 2.32054 -121.523 2.17466 0.987054 9.23101 19.564 7.50601 58.6149 81.9478 5.59098 -14.0086 -0.143678 35.8975 34.8563 80.3054 22.7969 24.6335 9.8459 24.2352 28.1661 18.0983 -1.10318 25.8275 37.1977 27.4487 -8.5859 29.2869 41.7021 22.5382 -11.1206 21.8842 45.9133 36.2449 0.398794 -0.62948 -0.00438123 0.0240216 -0.422791 0.6295 0 0.410199 -0.629479 -0.00450654 2.41484e-006 -0.410177 0.6295 0 
-0.101862 -0.0600716 0.0457827 -1.55616e-012 3.73543e-008 -5.1095e-006 0 -0 0 0 -0 0 0 -0 0 -0.71247 0.292061 -8.80367e-012 -4.10083 -24.9977 -28.4129 -21.0443 -43.7602 -31.3545 18.8688 50.815 1.6213 -27.9436 -65.2833 108.317 -5.9465 -7.44175 6.29417 -50.3571 -20.0037 -11.5643 6.55825 -38.876 -58.7545 -26.576 8.48127 -17.8832 -91.8158 -1.8259 27.3153 2.32054 -121.523 2.17466 0.896913 8.74279 20.7591 7.77583 59.3416 82.2959 5.08039 -12.7293 -0.130556 36.1371 34.0531 79.5303 23.2008 25.0808 10.2297 23.5294 28.2668 18.2787 -0.973795 25.4297 36.6601 27.5279 -8.59128 29.4532 40.5883 22.6819 -10.7348 22.4532 44.6512 35.5147 0.415769 -0.625862 -0.00454148 0.0240216 -0.439766 0.625883 0 0.427175 -0.625861 -0.00466607 2.41484e-006 -0.427151 0.625883 0 
-0.101922 -0.0600729 0.0460472 3.35133e-014 3.88583e-008 -5.10948e-006 0 -0 0 0 -0 0 0 -0 0 -0.712493 0.292239 -9.08374e-012 -4.10083 -24.9977 -28.4129 -21.0443 -43.7602 -31.3545 18.8688 50.815 1.6213 -27.9436 -65.2833 108.317 -5.9465 -7.44175 6.29417 -50.3571 -20.0037 -11.5643 6.55825 -38.876 -58.7545 -26.576 8.48127 -17.8832 -91.8158 -1.8259 27.3153 2.32054 -121.523 2.17466 0.807838 8.26042 21.9062 8.06289 60.0744 82.5827 4.57584 -11.4651 -0.11759 36.3767 33.25 78.7552 23.6047 25.5281 10.6134 22.8235 28.3676 18.459 -0.84441 25.0319 36.1226 27.6072 -8.59666 29.6196 39.4745 22.8256 -10.3489 23.0222 43.3892 34.7846 0.432426 -0.622085 -0.00469493 0.0240216 -0.456422 0.622108 0 0.443831 -0.622084 -0.00481877 1.70755e-006 -0.443807 0.622108 0 
-0.101984 -0.0600743 0.0463059 -3.27737e-013 4.03319e-008 -5.10947e-006 0 -0 0 0 -0 0 0 -0 0 -0.712515 0.292424 -9.30185e-012 -4.10083 -24.9977 -28.4129 -21.0443 -43.7602 -31.3545 18.8688 50.815 1.6213 -27.9436 -65.2833 108.317 -5.9465 -7.44175 6.29417 -50.3571 -20.0037 -11.5643 6.55825 -38.876 -58.7545 -26.576 8.48127 -17.8832 -91.8158 -1.8259 27.3153 2.32054 -121.523 2.17466 0.720091 7.78531 23.0024 8.36341 60.8112 82.81 4.07882 -10.2198 -0.104818 36.6163 32.4468 77.9801 24.0086 25.9754 10.9972 22.1176 28.4683 18.6393 -0.715024 24.6341 35.5851 27.6865 -8.60204 29.7859 38.3606 22.9693 -9.96311 23.5911 42.1271 34.0544 0.44872 -0.618163 -0.00484114 0.0240216 -0.472716 0.618187 0 0.460126 -0.618162 -0.00496419 8.75118e-007 -0.4601 0.618187 0 
-0.102049 -0.0600757 0.0465581 1.13643e-012 4.17709e-008 -5.10945e-006 0 -0 0 0 -0 0 0 -0 0 -0.712538 0.292617 -9.44242e-012 -4.10083 -24.9977 -28.4129 -21.0443 -43.7602 -31.3545 18.8688 50.815 1.6213 -27.9436 -65.2833 108.317 -5.9465 -7.44175 6.29417 -50.3571 -20.0037 -11.5643 6.55825 -38.876 -58.7545 -26.576 8.48127 -17.8832 -91.8158 -1.8259 27.3153 2.32054 -121.523 2.17466 0.633974 7.3191 24.0445 8.67337 61.5491 82.9802 3.59103 -8.99756 -0.0922825 36.8559 31.6437 77.205 24.4124 26.4226 11.381 21.4117 28.569 18.8197 -0.585639 24.2363 35.0476 27.7657 -8.60741 29.9522 37.2468 23.113 -9.57727 24.1601 40.8651 33.3243 0.464603 -0.614111 -0.00497965 0.0240216 -0.488598 0.614136 0 0.476009 -0.61411 -0.0051019 1.1712e-006 -0.475982 0.614136 0 
-0.102115 -0.060077 0.0468028 1.34713e-013 4.31706e-008 -5.10943e-006 0 -0 0 0 -0 0 0 -0 0 -0.712559 0.292816 -9.49027e-012 -4.10083 -24.9977 -28.4129 -21.0443 -43.7602 -31.3545 18.8688 50.815 1.6213 -27.9436 -65.2833 108.317 -5.9465 -7.44175 6.29417 -50.3571 -20.0037 -11.5643 6.55825 -38.876 -58.7545 -26.576 8.48127 -17.8832 -91.8158 -1.8259 27.3153 2.32054 -121.523 2.17466 0.549842 6.86368 25.0295 8.98854 62.2845 83.0961 3.11447 -7.80353 -0.0800361 37.0955 30.8406 76.43 24.8163 26.8699 11.7647 20.7059 28.6697 19 -0.456254 23.8385 34.5101 27.845 -8.61279 30.1186 36.133 23.2567 -9.19144 24.7291 39.603 32.5941 0.480018 -0.609952 -0.00511004 0.0240216 -0.504012 0.609979 0 0.491423 -0.609951 -0.00523145 2.41484e-006 -0.491398 0.609979 0 
-0.102182 -0.0600784 0.0470391 -8.65809e-013 4.45255e-008 -5.10942e-006 0 -0 0 0 -0 0 0 -0 0 -0.712581 0.29302 -9.42674e-012 -4.10083 -24.9977 -28.4129 -21.0443 -43.7602 -31.3545 18.8688 50.815 1.6213 -27.9436 -65.2833 108.317 -5.9465 -7.44175 6.29417 -50.3571 -20.0037 -11.5643 6.55825 -38.876 -58.7545 -26.576 8.48127 -17.8832 -91.8158 -1.8259 27.3153 2.32054 -121.523 2.17466 0.468113 6.42133 25.9541 9.30447 63.0131 83.1614 2.65154 -6.64361 -0.0681395 37.3351 30.0374 75.6549 25.2202 27.3172 12.1485 20 28.7704 19.1803 -0.326868 23.4407 33.9726 27.9243 -8.61817 30.2849 35.0192 23.4004 -8.80561 25.298 38.341 31.8639 0.494897 -0.605715 -0.00523185 0.0240216 -0.518891 0.605743 0 0.506302 -0.605714 -0.00535242 2.41484e-006 -0.506276 0.605743 0 
-0.10225 -0.0600797 0.0472656 1.3266e-012 4.5829e-008 -5.1094e-006 0 -0 0 0 -0 0 0 -0 0 -0.712601 0.293229 -9.2323e-012 -4.10083 -24.9977 -28.4129 -21.0443 -43.7602 -31.3545 18.8688 50.815 1.6213 -27.9436 -65.2833 108.317 -5.9465 -7.44175 6.29417 -50.3571 -20.0037 -11.5643 6.55825 -38.876 -58.7545 -26.576 8.48127 -17.8832 -91.8158 -1.8259 27.3153 2.32054 -121.523 2.17466 0.389297 5.99478 26.8151 9.61651 63.7295 83.1804 2.2051 -5.52503 -0.0566669 37.5747 29.2343 74.8798 25.6241 27.7645 12.5322 19.2941 28.8711 19.3606 -0.197483 23.0429 33.4351 28.0036 -8.62355 30.4512 33.9053 23.5441 -8.41978 25.867 37.0789 31.1338 0.509161 -0.601436 -0.00534464 0.0240216 -0.533154 0.601465 0 0.520565 -0.601435 -0.00546435 2.2443e-006 -0.520539 0.601465 0 
-0.102318 -0.060081 0.0474807 9.20583e-013 4.70733e-008 -5.10939e-006 0 -0 0 0 -0 0 0 -0 0 -0.712621 0.29344 -8.88415e-012 -4.10083 -24.9977 -28.4129 -21.0443 -43.7602 -31.3545 18.8688 50.815 1.6213 -27.9436 -65.2833 108.317 -5.9465 -7.44175 6.29417 -50.3571 -20.0037 -11.5643 6.55825 -38.876 -58.7545 -26.576 8.48127 -17.8832 -91.8158 -1.8259 27.3153 2.32054 -121.523 2.17466 0.31402 5.5874 27.6089 9.91974 64.4265 83.1587 1.7787 -4.45667 -0.0457093 37.8143 28.4311 74.1047 26.028 28.2118 12.916 18.5882 28.9718 19.541 -0.0680976 22.6451 32.8975 28.0828 -8.62892 30.6175 32.7915 23.6878 -8.03395 26.436 35.8168 30.4036 0.522712 -0.597163 -0.00544792 0.0240216 -0.546705 0.597193 0 0.534117 -0.597162 -0.00556678 2.2977e-006 -0.53409 0.597193 0 
-0.102384 -0.0600822 0.0476826 8.0872e-013 4.82486e-008 -5.10937e-006 0 -0 0 0 -0 0 0 -0 0 -0.712639 0.293653 -8.35949e-012 -4.10083 -24.9977 -28.4129 -21.0443 -43.7602 -31.3545 18.8688 50.815 1.6213 -27.9436 -65.2833 108.317 -5.9465 -7.44175 6.29417 -50.3571 -20.0037 -11.5643 6.55825 -38.876 -58.7545 -26.576 8.48127 -17.8832 -91.8158 -1.8259 27.3153 2.32054 -121.523 2.17466 0.24307 5.20345 28.3312 10.2089 65.0952 83.103 1.37682 -3.44972 -0.0353817 37.9386 28.008 73.698 26.2405 28.4472 13.118 18.2167 29.0248 19.6359 0 22.4358 32.6146 28.1246 -8.63175 30.7051 32.2053 23.7634 -7.83088 26.7354 35.1526 30.0193 0.535428 -0.592955 -0.00554115 0.0240216 -0.559421 0.592986 0 0.546833 -0.592954 -0.00565918 1.70755e-006 -0.546806 0.592986 0 
-0.102449 -0.0600833 0.047869 -1.71389e-013 4.93425e-008 -5.10936e-006 0 -0 0 0 -0 0 0 -0 0 -0.712657 0.293864 -7.68055e-012 -4.10083 -24.9977 -28.4129 -21.0443 -43.7602 -31.3545 18.8688 50.815 1.6213 -27.9436 -65.2833 108.317 -5.9465 -7.44175 6.29417 -50.3571 -20.0037 -11.5643 6.55825 -38.876 -58.7545 -26.576 8.48127 -17.8832 -91.8158 -1.8259 27.3153 2.32054 -121.523 2.17466 0.177471 4.84845 28.9766 10.4783 65.7237 83.0217 1.00525 -2.51872 -0.025833 37.9386 28.008 73.698 26.2405 28.4472 13.118 18.2167 29.0248 19.6359 0 22.4358 32.6146 28.1246 -8.63175 30.7051 32.2053 23.7634 -7.83088 26.7354 35.1526 30.0193 0.547167 -0.588878 -0.00562374 0.0240216 -0.57116 0.58891 0 0.558573 -0.588877 -0.00574096 1.70755e-006 -0.558545 0.58891 0 
